<?xml version="1.0" encoding="utf-8"?>
<!-- Svg Vector Icons : http://www.onlinewebfonts.com/icon -->
<!DOCTYPE svg PUBLIC "-//W3C//DTD SVG 1.1//EN" "http://www.w3.org/Graphics/SVG/1.1/DTD/svg11.dtd">
<svg fill="#ffffff" version="1.1" xmlns="http://www.w3.org/2000/svg" xmlns:xlink="http://www.w3.org/1999/xlink" x="0px" y="0px" viewBox="0 0 1000 1000" enable-background="new 0 0 1000 1000" xml:space="preserve">
<metadata> Svg Vector Icons : http://www.onlinewebfonts.com/icon </metadata>
<g><path d="M940.9,230.4H59.1c-27.1,0-49.1-22-49.1-49.1c0-27.1,22-49.1,49.1-49.1h881.8c27.1,0,49.1,22,49.1,49.1C990,208.4,968,230.4,940.9,230.4z"/><path d="M940.9,549.1H59.1C32,549.1,10,527.1,10,500c0-27.1,22-49.1,49.1-49.1h881.8c27.1,0,49.1,22,49.1,49.1C990,527.1,968,549.1,940.9,549.1z"/><path d="M940.9,867.8H59.1c-27.1,0-49.1-22-49.1-49.1c0-27.1,22-49.1,49.1-49.1h881.8c27.1,0,49.1,22,49.1,49.1C990,845.8,968,867.8,940.9,867.8z"/></g>
</svg>